<svg width="21" height="21" viewBox="0 0 21 21" fill="none" xmlns="http://www.w3.org/2000/svg">
<path d="M2.71484 14.61V17.786H5.89084L15.2578 8.419L12.0818 5.241L2.71484 14.61ZM17.7148 5.962C17.7934 5.88368 17.8557 5.79064 17.8982 5.68819C17.9408 5.58575 17.9627 5.47592 17.9627 5.365C17.9627 5.25408 17.9408 5.14425 17.8982 5.0418C17.8557 4.93936 17.7934 4.84631 17.7148 4.768L15.7328 2.786C15.6545 2.70744 15.5615 2.64512 15.459 2.60259C15.3566 2.56007 15.2468 2.53818 15.1358 2.53818C15.0249 2.53818 14.9151 2.56007 14.8126 2.60259C14.7102 2.64512 14.6172 2.70744 14.5388 2.786L12.9888 4.341L16.1648 7.512L17.7148 5.962Z" fill="#DFDFDF"/>
</svg>
