<svg width="22" height="18" viewBox="0 0 22 18" fill="none" xmlns="http://www.w3.org/2000/svg">
<path d="M11 0L0 8.4L1.21 9.99L3 8.62V18H19V8.62L20.79 9.98L22 8.4L11 0ZM17 16H5V7.1L11 2.52L17 7.1V16ZM8 11C8 11.1978 7.94135 11.3911 7.83147 11.5556C7.72159 11.72 7.56541 11.8482 7.38268 11.9239C7.19996 11.9996 6.99889 12.0194 6.80491 11.9808C6.61093 11.9422 6.43275 11.847 6.29289 11.7071C6.15304 11.5673 6.0578 11.3891 6.01921 11.1951C5.98063 11.0011 6.00043 10.8 6.07612 10.6173C6.15181 10.4346 6.27998 10.2784 6.44443 10.1685C6.60888 10.0586 6.80222 10 7 10C7.26522 10 7.51957 10.1054 7.70711 10.2929C7.89464 10.4804 8 10.7348 8 11ZM11 10C11.1978 10 11.3911 10.0586 11.5556 10.1685C11.72 10.2784 11.8482 10.4346 11.9239 10.6173C11.9996 10.8 12.0194 11.0011 11.9808 11.1951C11.9422 11.3891 11.847 11.5673 11.7071 11.7071C11.5673 11.847 11.3891 11.9422 11.1951 11.9808C11.0011 12.0194 10.8 11.9996 10.6173 11.9239C10.4346 11.8482 10.2784 11.72 10.1685 11.5556C10.0586 11.3911 10 11.1978 10 11C10 10.7348 10.1054 10.4804 10.2929 10.2929C10.4804 10.1054 10.7348 10 11 10ZM14 11C14 10.8022 14.0586 10.6089 14.1685 10.4444C14.2784 10.28 14.4346 10.1518 14.6173 10.0761C14.8 10.0004 15.0011 9.98063 15.1951 10.0192C15.3891 10.0578 15.5673 10.153 15.7071 10.2929C15.847 10.4327 15.9422 10.6109 15.9808 10.8049C16.0194 10.9989 15.9996 11.2 15.9239 11.3827C15.8482 11.5654 15.72 11.7216 15.5556 11.8315C15.3911 11.9414 15.1978 12 15 12C14.7348 12 14.4804 11.8946 14.2929 11.7071C14.1054 11.5196 14 11.2652 14 11Z" fill="#2289FF"/>
</svg>
