<svg width="24" height="24" viewBox="0 0 24 24" fill="none" xmlns="http://www.w3.org/2000/svg">
<path d="M12 22C12.5299 21.9984 13.0377 21.7872 13.4125 21.4125C13.7872 21.0377 13.9984 20.5299 14 20H10C10.0016 20.5299 10.2128 21.0377 10.5875 21.4125C10.9623 21.7872 11.4701 21.9984 12 22ZM18 16V11C18 7.93 16.37 5.36 13.5 4.68V4C13.5 3.60218 13.342 3.22064 13.0607 2.93934C12.7794 2.65804 12.3978 2.5 12 2.5C11.6022 2.5 11.2206 2.65804 10.9393 2.93934C10.658 3.22064 10.5 3.60218 10.5 4V4.68C7.64 5.36 6 7.92 6 11V16L4 18V19H20V18L18 16ZM16 17H8V11C8 8.52 9.51 6.5 12 6.5C14.49 6.5 16 8.52 16 11V17Z" fill="#AAAAAA"/>
</svg>
