<svg width="24" height="24" viewBox="0 0 24 24" fill="none" xmlns="http://www.w3.org/2000/svg">
<path d="M21.41 11.41L12.58 2.58C12.205 2.20808 11.6982 1.99958 11.17 2H4.00001C3.47006 2.00158 2.96227 2.21281 2.58754 2.58754C2.21281 2.96227 2.00159 3.47005 2.00001 4V11.17C1.99924 11.4325 2.05104 11.6925 2.15237 11.9347C2.25371 12.1769 2.40251 12.3963 2.59001 12.58L11.42 21.41C11.6058 21.596 11.8263 21.7435 12.0691 21.8441C12.3119 21.9448 12.5722 21.9966 12.835 21.9966C13.0978 21.9966 13.3581 21.9448 13.6009 21.8441C13.8437 21.7435 14.0643 21.596 14.25 21.41L21.42 14.24C21.6053 14.0536 21.752 13.8325 21.8518 13.5893C21.9516 13.3462 22.0025 13.0858 22.0016 12.8229C22.0007 12.5601 21.9479 12.3 21.8464 12.0576C21.7449 11.8151 21.5966 11.5951 21.41 11.41ZM12.83 20L4.00001 11.17V4H11.17L20 12.83L12.83 20Z" fill="#AAAAAA"/>
<path d="M6.5 8C7.32843 8 8 7.32843 8 6.5C8 5.67157 7.32843 5 6.5 5C5.67157 5 5 5.67157 5 6.5C5 7.32843 5.67157 8 6.5 8Z" fill="#AAAAAA"/>
</svg>
