<svg width="32" height="32" viewBox="0 0 32 32" fill="none" xmlns="http://www.w3.org/2000/svg">
<path d="M14.99 19.8V10.254H10.324L16.324 4.254L22.324 10.254H17.657V19.801L14.99 19.8ZM8 18.667C8 20.7887 8.84285 22.8236 10.3431 24.3239C11.8434 25.8241 13.8783 26.667 16 26.667C18.1217 26.667 20.1566 25.8241 21.6569 24.3239C23.1571 22.8236 24 20.7887 24 18.667H21.333C21.333 20.0814 20.7711 21.4379 19.771 22.438C18.7709 23.4381 17.4144 24 16 24C14.5856 24 13.2291 23.4381 12.229 22.438C11.2289 21.4379 10.667 20.0814 10.667 18.667H8Z" fill="#AAAAAA"/>
</svg>
