<svg width="20" height="25" viewBox="0 0 20 25" fill="none" xmlns="http://www.w3.org/2000/svg">
<path d="M12.541 10.608C13.2961 10.1796 13.9243 9.55896 14.3618 8.80916C14.7993 8.05936 15.0306 7.20712 15.032 6.33901C15.0197 5.66832 14.8748 5.00671 14.6056 4.39228C14.3365 3.77785 13.9484 3.22276 13.4637 2.75901C12.979 2.29525 12.4074 1.932 11.7817 1.69018C11.156 1.44835 10.4886 1.33275 9.81805 1.35001C9.14747 1.33275 8.48011 1.44835 7.85441 1.69018C7.22872 1.932 6.65706 2.29525 6.17239 2.75901C5.68772 3.22276 5.29962 3.77785 5.03045 4.39228C4.76128 5.00671 4.61636 5.66832 4.60405 6.33901C4.60554 7.20712 4.83679 8.05936 5.2743 8.80916C5.71182 9.55896 6.34001 10.1796 7.09505 10.608C5.23011 11.1177 3.5822 12.2216 2.40111 13.7522C1.22003 15.2828 0.57017 17.1568 0.550049 19.09C0.550049 23.968 4.95005 23.469 6.57505 23.58H13.005C16.075 23.58 19.03 23.247 19.03 19.09C19.0221 17.1618 18.3836 15.2892 17.212 13.7578C16.0404 12.2263 14.4 11.1202 12.541 10.608ZM5.76305 6.39501C5.77145 5.87301 5.88335 5.35786 6.09226 4.87942C6.30118 4.40097 6.60296 3.96873 6.98013 3.60775C7.35729 3.24677 7.80234 2.96423 8.28948 2.77648C8.77662 2.58873 9.29618 2.49952 9.81805 2.51401C10.3415 2.49178 10.8641 2.57567 11.3542 2.76066C11.8444 2.94564 12.2921 3.2279 12.6704 3.59043C13.0486 3.95296 13.3496 4.38827 13.5553 4.87017C13.7609 5.35206 13.8669 5.87057 13.8669 6.39451C13.8669 6.91844 13.7609 7.43696 13.5553 7.91886C13.3496 8.40076 13.0486 8.83606 12.6704 9.19858C12.2921 9.56111 11.8444 9.84337 11.3542 10.0284C10.8641 10.2133 10.3415 10.2973 9.81805 10.275C8.77263 10.275 7.76756 9.87151 7.01231 9.14867C6.25706 8.42584 5.80991 7.43942 5.76405 6.39501H5.76305ZM13.063 22.472H6.63205C4.54705 22.417 1.76605 22.638 1.76605 19.09C1.81955 16.9878 2.70223 14.992 4.22155 13.5381C5.74086 12.0841 7.7735 11.2901 9.87605 11.329C11.9786 11.2901 14.0112 12.0841 15.5306 13.5381C17.0499 14.992 17.9326 16.9878 17.986 19.09C17.928 21.969 16.422 22.469 13.062 22.469L13.063 22.472Z" fill="#A6A6A6" stroke="#A6A6A6"/>
</svg>
