<svg width="24" height="16" viewBox="0 0 24 16" fill="none" xmlns="http://www.w3.org/2000/svg">
<path d="M12 2.43701C13.8387 2.4309 15.6419 2.9438 17.2021 3.91674C18.7624 4.88968 20.0164 6.28317 20.82 7.93701C20.0115 9.58701 18.7563 10.9771 17.1972 11.9494C15.638 12.9216 13.8374 13.4371 12 13.4371C10.1626 13.4371 8.36195 12.9216 6.80282 11.9494C5.24368 10.9771 3.98853 9.58701 3.18 7.93701C3.98362 6.28317 5.23763 4.88968 6.79788 3.91674C8.35813 2.9438 10.1613 2.4309 12 2.43701ZM12 0.437012C9.62547 0.438426 7.30636 1.15456 5.34446 2.49222C3.38256 3.82988 1.86874 5.72711 1 7.93701C1.86767 10.1476 3.38125 12.0455 5.3434 13.3832C7.30555 14.7209 9.62523 15.4364 12 15.4364C14.3748 15.4364 16.6945 14.7209 18.6566 13.3832C20.6187 12.0455 22.1323 10.1476 23 7.93701C22.1313 5.72711 20.6174 3.82988 18.6555 2.49222C16.6936 1.15456 14.3745 0.438426 12 0.437012Z" fill="#AAAAAA"/>
<path d="M12 10C13.1046 10 14 9.10458 14 8.00002C14 6.89545 13.1046 6.00002 12 6.00002C10.8954 6.00002 10 6.89545 10 8.00002C10 9.10458 10.8954 10 12 10Z" fill="#AAAAAA"/>
</svg>
